<?xml version="1.0" standalone="no"?>
<!DOCTYPE svg PUBLIC "-//W3C//DTD SVG 1.1//EN" "http://www.w3.org/Graphics/SVG/1.1/DTD/svg11.dtd" >
<svg xmlns="http://www.w3.org/2000/svg" xmlns:xlink="http://www.w3.org/1999/xlink" version="1.1">
<metadata>
Created by FontForge 20170910 at Wed Aug  2 20:11:04 2017
 By Jimmy Wärting
Copyright \(c\) 2017 by Lewis MacDonald. All rights reserved.
</metadata>
<defs>
<font id="Chromatica-Bold" horiz-adv-x="568" >
  <font-face 
    font-family="Chromatica Bold"
    font-weight="700"
    font-stretch="normal"
    units-per-em="1000"
    panose-1="0 0 8 0 0 0 0 0 0 0"
    ascent="800"
    descent="-200"
    x-height="513"
    cap-height="700"
    bbox="-20 -270 1189 830"
    underline-thickness="108"
    underline-position="-100"
    stemh="114"
    stemv="116"
    unicode-range="U+0020-2212"
  />
<missing-glyph horiz-adv-x="778" 
d="M566 700h116v-700h-116v152h-355v-152h-116v700h116v-152h355v152zM211 266h355v168h-355v-168z" />
    <glyph glyph-name=".notdef" horiz-adv-x="778" 
d="M566 700h116v-700h-116v152h-355v-152h-116v700h116v-152h355v152zM211 266h355v168h-355v-168z" />
    <glyph glyph-name="A" unicode="A" horiz-adv-x="769" 
d="M616 0l-79 193h-306l-79 -193h-126l303 706h111l303 -706h-127zM277 306h214l-107 263z" />
    <glyph glyph-name="B" unicode="B" horiz-adv-x="642" 
d="M485 365c65 -31 103 -90 103 -169c0 -120 -88 -196 -226 -196h-267v700h253c134 0 218 -72 218 -185c0 -67 -30 -119 -81 -150zM211 589v-175h138c65 0 101 31 101 88c0 56 -36 87 -101 87h-138zM363 111c70 0 110 34 110 97c0 61 -40 96 -110 96h-152v-193h152z" />
    <glyph glyph-name="C" unicode="C" horiz-adv-x="740" 
d="M606 499c-44 56 -111 91 -193 91c-140 0 -246 -103 -246 -241c0 -136 104 -239 245 -239c91 0 165 44 208 105l92 -81c-66 -86 -172 -144 -301 -144c-207 0 -366 156 -366 359c0 205 161 361 368 361c114 0 213 -48 279 -124z" />
    <glyph glyph-name="D" unicode="D" horiz-adv-x="735" 
d="M95 0v700h245c199 0 349 -150 349 -350s-150 -350 -349 -350h-245zM213 115h122c141 0 236 95 236 235s-95 235 -236 235h-122v-470z" />
    <glyph glyph-name="E" unicode="E" horiz-adv-x="574" 
d="M95 0v700h405v-115h-287v-161h279v-116h-279v-193h287v-115h-405z" />
    <glyph glyph-name="F" unicode="F" horiz-adv-x="551" 
d="M95 0v700h405v-115h-287v-184h277v-115h-277v-286h-118z" />
    <glyph glyph-name="G" unicode="G" horiz-adv-x="770" 
d="M437 417h275v-291c-66 -81 -172 -136 -301 -136c-207 0 -366 156 -366 359c0 205 161 361 368 361c114 0 213 -48 279 -124l-86 -87c-44 56 -111 91 -193 91c-140 0 -246 -103 -246 -241c0 -136 104 -239 245 -239c76 0 139 29 183 72v119h-158v116z" />
    <glyph glyph-name="H" unicode="H" horiz-adv-x="779" 
d="M684 700v-700h-118v308h-353v-308h-118v700h118v-276h353v276h118z" />
    <glyph glyph-name="I" unicode="I" horiz-adv-x="308" 
d="M213 700v-700h-118v700h118z" />
    <glyph glyph-name="J" unicode="J" horiz-adv-x="604" 
d="M524 700v-463c0 -147 -101 -247 -244 -247c-146 0 -248 100 -252 247l118 8c3 -83 59 -137 134 -137s126 51 126 129v463h118z" />
    <glyph glyph-name="K" unicode="K" horiz-adv-x="676" 
d="M647 0h-140l-217 338l-77 -82v-256h-118v700h119v-293l257 293h159l-257 -274z" />
    <glyph glyph-name="L" unicode="L" 
d="M213 700v-585h324v-115h-442v700h118z" />
    <glyph glyph-name="M" unicode="M" horiz-adv-x="899" 
d="M650 700h154v-700h-117v532l-183 -472h-108l-183 470v-530h-118v700h155l200 -504z" />
    <glyph glyph-name="M.001" horiz-adv-x="882" 
d="M787 702v-702h-117v531l-229 -232l-228 231v-530h-118v702h104l242 -240l242 240h104z" />
    <glyph glyph-name="N" unicode="N" horiz-adv-x="803" 
d="M708 0h-91l-404 490v-490h-118v700h93l403 -489l-1 489h118v-700z" />
    <glyph glyph-name="O" unicode="O" horiz-adv-x="823" 
d="M411 -10c-207 0 -366 156 -366 360s161 360 369 360c206 0 363 -156 363 -360s-158 -360 -366 -360zM411 110c140 0 244 103 244 240s-103 240 -241 240c-141 0 -246 -103 -246 -240s104 -240 243 -240z" />
    <glyph glyph-name="P" unicode="P" horiz-adv-x="634" 
d="M95 0v700h254c150 0 247 -91 247 -230s-97 -231 -247 -231h-136v-239h-118zM213 356h132c80 0 129 43 129 114s-49 112 -129 112h-132v-226z" />
    <glyph glyph-name="Q" unicode="Q" horiz-adv-x="823" 
d="M777 350c0 -166 -105 -300 -256 -344l29 -166l-115 -18l-29 168c-205 3 -361 158 -361 360c0 204 161 360 369 360c206 0 363 -156 363 -360zM411 110c140 0 244 103 244 240s-103 240 -241 240c-141 0 -246 -103 -246 -240s104 -240 243 -240z" />
    <glyph glyph-name="R" unicode="R" horiz-adv-x="659" 
d="M615 0h-139l-153 247h-110v-247h-118v700h254c150 0 247 -90 247 -226c0 -102 -54 -178 -144 -210zM213 586v-226h134c79 0 129 43 129 114s-50 112 -129 112h-134z" />
    <glyph glyph-name="S" unicode="S" horiz-adv-x="558" 
d="M282 710c82 0 160 -34 217 -92l-75 -84c-45 43 -97 63 -141 63c-52 0 -91 -29 -91 -73c0 -31 22 -53 75 -80l123 -63c86 -44 125 -105 125 -184c0 -124 -101 -207 -235 -207c-90 0 -176 37 -249 121l86 82c53 -59 107 -88 162 -88c62 0 116 36 116 90c0 39 -27 65 -78 91
l-121 62c-85 43 -126 99 -126 173c0 108 85 189 212 189z" />
    <glyph glyph-name="T" unicode="T" horiz-adv-x="597" 
d="M566 700v-115h-209v-585h-117v585h-209v115h535z" />
    <glyph glyph-name="U" unicode="U" horiz-adv-x="744" 
d="M372 -10c-177 0 -295 114 -295 285v425h117v-427c0 -103 69 -165 178 -165s177 62 177 165v427h118v-425c0 -171 -119 -285 -295 -285z" />
    <glyph glyph-name="V" unicode="V" horiz-adv-x="737" 
d="M313 0l-287 700h133l211 -538l212 538h129l-285 -700h-113z" />
    <glyph glyph-name="W" unicode="W" horiz-adv-x="961" 
d="M239 0l-207 700h124l129 -480l148 451h95l148 -452l131 481h122l-206 -700h-77l-165 481l-165 -481h-77z" />
    <glyph glyph-name="X" unicode="X" horiz-adv-x="694" 
d="M33 0l247 353l-242 347h144l165 -247l166 247h143l-242 -347l247 -353h-144l-169 252l-171 -252h-144z" />
    <glyph glyph-name="Y" unicode="Y" horiz-adv-x="661" 
d="M640 700l-251 -374v-326h-117v328l-251 372h143l166 -255l167 255h143z" />
    <glyph glyph-name="Z" unicode="Z" horiz-adv-x="596" 
d="M551 700l-316 -585h307v-115h-502l315 585h-295v115h491z" />
    <glyph glyph-name="a" unicode="a" horiz-adv-x="645" 
d="M448 513h116v-513h-116v57c-39 -45 -94 -67 -155 -67c-144 0 -254 115 -254 268c0 151 109 265 254 265c60 0 114 -19 155 -66v56zM311 104c58 0 111 29 137 74v159c-27 44 -80 72 -137 72c-88 0 -154 -66 -154 -152c0 -87 66 -153 154 -153z" />
    <glyph glyph-name="b" unicode="b" horiz-adv-x="654" 
d="M360 523c145 0 254 -114 254 -265c0 -153 -110 -268 -254 -268c-61 0 -115 21 -154 66v-56h-116v750h116v-292c41 46 95 65 154 65zM342 104c88 0 154 66 154 153c0 86 -66 152 -154 152c-56 0 -109 -27 -136 -70v-163c27 -44 79 -72 136 -72z" />
    <glyph glyph-name="c" unicode="c" horiz-adv-x="562" 
d="M437 342c-28 39 -72 62 -124 62c-87 0 -154 -63 -154 -148s66 -147 153 -147c58 0 107 27 136 72l91 -79c-51 -68 -137 -112 -230 -112c-152 0 -271 115 -271 265c0 152 122 268 273 268c84 0 163 -37 211 -96z" />
    <glyph glyph-name="d" unicode="d" horiz-adv-x="654" 
d="M448 750h116v-750h-116v56c-39 -45 -93 -66 -154 -66c-144 0 -254 115 -254 268c0 151 109 265 254 265c59 0 113 -19 154 -65v292zM312 104c57 0 109 28 136 72v163c-27 43 -80 70 -136 70c-88 0 -154 -66 -154 -152c0 -87 66 -153 154 -153z" />
    <glyph glyph-name="e" unicode="e" horiz-adv-x="593" 
d="M553 260c0 -12 -1 -30 -1 -30h-401c13 -76 77 -125 164 -125c51 0 95 16 152 68l75 -86c-68 -67 -137 -97 -221 -97c-162 0 -283 114 -283 268c0 151 116 265 264 265c145 0 251 -112 251 -263zM301 419c-64 0 -116 -37 -139 -93h269c-20 57 -67 93 -130 93z" />
    <glyph glyph-name="f" unicode="f" horiz-adv-x="404" 
d="M239 561v-48h135v-114h-135v-399h-116v399h-92v114h92v51c0 123 68 196 185 196c26 0 50 -4 72 -10l-22 -112c-12 5 -27 8 -42 8c-48 0 -77 -32 -77 -85z" />
    <glyph glyph-name="g" unicode="g" horiz-adv-x="665" 
d="M460 513h116v-538c0 -146 -109 -245 -257 -245c-145 0 -256 96 -261 232l116 10c5 -73 64 -128 147 -128c79 0 139 50 139 131v87c-41 -40 -97 -55 -151 -55c-146 0 -255 112 -255 259s109 257 257 257c48 0 106 -14 149 -53v43zM326 122c56 0 107 25 134 64v160
c-27 39 -79 63 -133 63c-88 0 -155 -62 -155 -144c0 -81 66 -143 154 -143z" />
    <glyph glyph-name="h" unicode="h" horiz-adv-x="625" 
d="M368 524c119 0 190 -80 190 -220v-304h-116v297c0 72 -38 112 -103 112c-52 0 -104 -24 -132 -64v-345h-116v152h-1v598h116v-237h1v-58c37 47 99 69 161 69z" />
    <glyph glyph-name="i" unicode="i" horiz-adv-x="307" 
d="M152 760c51 0 89 -37 89 -87s-38 -88 -89 -88s-89 38 -89 88s38 87 89 87zM95 0v513h116v-513h-116z" />
    <glyph glyph-name="j" unicode="j" horiz-adv-x="333" 
d="M176 760c51 0 89 -37 89 -87s-38 -88 -89 -88s-89 38 -89 88s38 87 89 87zM121 513h116v-513c0 -123 -68 -196 -185 -196c-26 0 -50 4 -72 10l22 112c12 -5 27 -8 42 -8c48 0 77 32 77 85v510z" />
    <glyph glyph-name="k" unicode="k" horiz-adv-x="617" 
d="M593 0h-140l-159 241l-88 -85v-156h-116v750h116v-451l216 214h156l-199 -191z" />
    <glyph glyph-name="l" unicode="l" horiz-adv-x="297" 
d="M90 0v750h117v-750h-117z" />
    <glyph glyph-name="m" unicode="m" horiz-adv-x="916" 
d="M651 524c120 0 198 -80 198 -220v-304h-116v296c0 72 -33 113 -93 113c-47 0 -95 -26 -119 -67c1 -12 2 -25 2 -38v-304h-116v296c0 72 -33 113 -92 113c-46 0 -92 -24 -117 -62v-347h-116v513h116v-57c32 40 90 68 151 68c60 0 107 -25 137 -70c36 43 95 70 165 70z" />
    <glyph glyph-name="n" unicode="n" horiz-adv-x="616" 
d="M359 524c119 0 190 -80 190 -220v-304h-116v297c0 72 -38 112 -103 112c-52 0 -104 -24 -132 -64v-345h-116v513h116v-58c37 47 99 69 161 69z" />
    <glyph glyph-name="o" unicode="o" horiz-adv-x="620" 
d="M310 523c156 0 272 -114 272 -266c0 -153 -116 -267 -272 -267s-272 114 -272 267c0 152 116 266 272 266zM310 409c-88 0 -155 -66 -155 -152c0 -87 67 -153 155 -153s155 66 155 153c0 86 -67 152 -155 152z" />
    <glyph glyph-name="p" unicode="p" horiz-adv-x="654" 
d="M360 523c145 0 254 -114 254 -265c0 -153 -110 -268 -254 -268c-61 0 -115 21 -154 66v-316h-116v773h116v-55c41 46 95 65 154 65zM342 104c88 0 154 66 154 153c0 86 -66 152 -154 152c-56 0 -109 -27 -136 -70v-163c27 -44 79 -72 136 -72z" />
    <glyph glyph-name="q" unicode="q" horiz-adv-x="654" 
d="M448 513h116v-773h-116v316c-39 -45 -93 -66 -154 -66c-144 0 -254 115 -254 268c0 151 109 265 254 265c59 0 113 -19 154 -65v55zM312 104c57 0 109 28 136 72v163c-27 43 -80 70 -136 70c-88 0 -154 -66 -154 -152c0 -87 66 -153 154 -153z" />
    <glyph glyph-name="r" unicode="r" horiz-adv-x="424" 
d="M398 406c-67 0 -164 -35 -200 -89v-317h-116v513h116v-76c45 57 122 87 199 87z" />
    <glyph glyph-name="s" unicode="s" horiz-adv-x="464" 
d="M234 -10c-77 0 -145 29 -206 88l76 84c44 -43 94 -62 137 -62c41 0 67 19 67 46c0 21 -15 37 -49 52l-99 44c-70 31 -100 75 -100 131c0 84 65 150 173 150c69 0 135 -27 180 -71l-69 -80c-38 33 -77 45 -109 45c-36 0 -57 -16 -57 -38c0 -20 15 -34 51 -50l94 -40
c71 -30 103 -76 103 -138c0 -99 -82 -161 -192 -161z" />
    <glyph glyph-name="t" unicode="t" horiz-adv-x="517" 
d="M413 153l72 -87c-51 -50 -100 -76 -170 -76c-117 0 -192 70 -192 184v225h-93v114h93v174h116v-174h220v-114h-220v-217c0 -52 31 -78 75 -78c37 0 64 17 99 49z" />
    <glyph glyph-name="u" unicode="u" horiz-adv-x="616" 
d="M418 513h116v-513h-116v58c-37 -47 -99 -69 -161 -69c-119 0 -190 80 -190 220v304h116v-297c0 -72 38 -112 103 -112c52 0 104 24 132 64v345z" />
    <glyph glyph-name="v" unicode="v" horiz-adv-x="613" 
d="M463 513h130l-228 -513h-117l-228 513h129l157 -375z" />
    <glyph glyph-name="w" unicode="w" horiz-adv-x="847" 
d="M695 513h124l-157 -513h-108l-131 348l-130 -348h-108l-158 513h126l97 -361l122 351h104l121 -350z" />
    <glyph glyph-name="x" unicode="x" horiz-adv-x="618" 
d="M24 0l214 264l-199 249h146l124 -161l121 161h149l-202 -248l217 -265h-149l-137 178l-137 -178h-147z" />
    <glyph glyph-name="y" unicode="y" horiz-adv-x="575" 
d="M430 513h126l-377 -773h-126l171 351l-205 422h131l138 -292z" />
    <glyph glyph-name="z" unicode="z" horiz-adv-x="530" 
d="M485 513l-247 -399h246v-114h-445l249 400l-235 -1v114h432z" />
    <glyph glyph-name="zero" unicode="0" horiz-adv-x="672" 
d="M337 -10c-168 0 -273 139 -273 360s105 360 273 360c167 0 272 -139 272 -360s-105 -360 -272 -360zM337 108c93 0 152 93 152 242s-59 242 -152 242c-94 0 -154 -93 -154 -242s60 -242 154 -242z" />
    <glyph glyph-name="one" unicode="1" horiz-adv-x="413" 
d="M308 700v-700h-117v584h-150v116h267z" />
    <glyph glyph-name="two" unicode="2" horiz-adv-x="592" 
d="M50 0l274 347c42 53 68 92 68 142c0 64 -43 105 -104 105c-69 0 -112 -52 -114 -132l-119 9c0 142 94 239 233 239c134 0 227 -89 227 -210c0 -78 -41 -143 -98 -213l-140 -171h249v-116h-476z" />
    <glyph glyph-name="three" unicode="3" horiz-adv-x="587" 
d="M421 365c64 -34 100 -94 100 -167c0 -119 -98 -208 -231 -208c-137 0 -237 94 -237 224l117 8c2 -70 50 -118 118 -118c66 0 112 43 112 106c0 62 -46 98 -122 98h-18v113h18c68 0 108 31 108 84c0 54 -40 91 -97 91c-60 0 -103 -40 -105 -104l-117 8
c0 122 94 210 222 210c126 0 218 -83 218 -194c0 -64 -31 -118 -86 -151z" />
    <glyph glyph-name="four" unicode="4" horiz-adv-x="678" 
d="M637 362v-116h-182v-246h-117v246h-284l80 454h118l-66 -338h152v212h117v-212h182z" />
    <glyph glyph-name="five" unicode="5" horiz-adv-x="615" 
d="M312 456c140 0 244 -99 244 -232s-107 -234 -250 -234c-138 0 -241 95 -241 224l118 8c2 -70 53 -118 125 -118c74 0 126 50 126 119c0 71 -55 119 -132 119c-41 0 -83 -15 -115 -45l-94 39l25 364h397v-114h-297l-13 -154c31 16 67 24 107 24z" />
    <glyph glyph-name="six" unicode="6" horiz-adv-x="588" 
d="M314 460c117 0 227 -97 227 -228c0 -138 -106 -242 -249 -242c-138 0 -243 99 -243 232c0 54 19 113 80 217l167 280l104 -49l-129 -214c14 3 29 4 43 4zM293 107c74 0 128 53 128 123c0 71 -55 123 -127 123s-126 -52 -126 -124c0 -70 54 -122 125 -122z" />
    <glyph glyph-name="seven" unicode="7" horiz-adv-x="575" 
d="M536 700l-235 -700h-123l195 584h-332v116h495z" />
    <glyph glyph-name="eight" unicode="8" horiz-adv-x="613" 
d="M443 360c65 -32 105 -90 105 -162c0 -116 -104 -208 -242 -208s-242 92 -242 208c0 72 40 130 105 163c-58 31 -93 85 -93 150c0 110 98 199 231 199c134 0 229 -89 229 -199c0 -66 -35 -119 -93 -151zM306 600c-64 0 -112 -40 -112 -94s48 -94 112 -94
c65 0 112 40 112 94s-47 94 -112 94zM306 100c71 0 124 44 124 103c0 60 -53 104 -124 104s-123 -44 -123 -104c0 -59 52 -103 123 -103z" />
    <glyph glyph-name="nine" unicode="9" horiz-adv-x="589" 
d="M296 710c138 0 243 -99 243 -232c0 -54 -19 -113 -80 -217l-167 -280l-104 49l129 214c-14 -3 -29 -4 -43 -4c-117 0 -227 97 -227 228c0 138 106 242 249 242zM167 470c0 -71 55 -123 127 -123s126 52 126 124c0 70 -54 122 -125 122c-74 0 -128 -53 -128 -123z" />
    <glyph glyph-name="asterisk" unicode="*" horiz-adv-x="605" 
d="M540 484l-154 -42l100 -125l-95 -70l-89 136l-89 -135l-95 69l100 125l-154 42l37 112l150 -57l-8 161h118l-8 -160l150 57z" />
    <glyph glyph-name="backslash" unicode="\" horiz-adv-x="456" 
d="M440 0h-124l-300 700h124z" />
    <glyph glyph-name="periodcentered" unicode="&#xb7;" horiz-adv-x="338" 
d="M168 409c51 0 89 -37 89 -87s-38 -88 -89 -88s-89 38 -89 88s38 87 89 87z" />
    <glyph glyph-name="bullet" unicode="&#x2022;" horiz-adv-x="524" 
d="M263 511c102 0 184 -80 184 -180c0 -101 -82 -181 -184 -181c-103 0 -185 80 -185 181c0 100 82 180 185 180z" />
    <glyph glyph-name="colon" unicode=":" horiz-adv-x="364" 
d="M182 465c51 0 89 -37 89 -87s-38 -88 -89 -88s-89 38 -89 88s38 87 89 87zM182 165c51 0 89 -37 89 -87s-38 -88 -89 -88s-89 38 -89 88s38 87 89 87z" />
    <glyph glyph-name="comma" unicode="," horiz-adv-x="347" 
d="M175 165c47 0 93 -32 93 -106c0 -62 -30 -123 -119 -213l-63 51c37 38 62 72 77 103c-37 -5 -77 32 -77 80c0 47 38 85 89 85z" />
    <glyph glyph-name="exclam" unicode="!" horiz-adv-x="371" 
d="M243 700v-434h-117v434h117zM183 165c51 0 89 -37 89 -87s-38 -88 -89 -88s-89 38 -89 88s38 87 89 87z" />
    <glyph glyph-name="numbersign" unicode="#" horiz-adv-x="869" 
d="M788 431h-158l-6 -162h157l-4 -108h-156l-6 -161h-111l6 161h-164l-6 -161h-110l6 161h-159l4 108h158l6 162h-157l4 108h156l6 161h110l-6 -161h164l6 161h111l-6 -161h159zM513 269l6 162h-164l-6 -162h164z" />
    <glyph glyph-name="period" unicode="." horiz-adv-x="339" 
d="M169 165c51 0 89 -37 89 -87s-38 -88 -89 -88s-89 38 -89 88s38 87 89 87z" />
    <glyph glyph-name="question" unicode="?" horiz-adv-x="496" 
d="M229 710c118 0 206 -74 206 -174c0 -78 -52 -139 -137 -169l-1 -101h-119v170c81 6 135 41 135 90c0 40 -37 66 -90 66c-41 0 -79 -15 -117 -43l-54 100c50 39 112 61 177 61zM236 165c51 0 89 -37 89 -87s-38 -88 -89 -88s-89 38 -89 88s38 87 89 87z" />
    <glyph glyph-name="quotedbl" unicode="&#x22;" horiz-adv-x="521" 
d="M225 700l-10 -285h-101l-10 285h121zM417 700l-10 -285h-101l-10 285h121z" />
    <glyph glyph-name="quotesingle" unicode="'" horiz-adv-x="329" 
d="M225 700l-10 -285h-101l-10 285h121z" />
    <glyph glyph-name="semicolon" unicode=";" horiz-adv-x="368" 
d="M190 290c-51 0 -89 38 -89 88s38 87 89 87s89 -37 89 -87s-38 -88 -89 -88zM182 165c47 0 93 -32 93 -106c0 -62 -30 -123 -119 -213l-63 51c37 38 62 72 77 103c-37 -5 -77 32 -77 80c0 47 38 85 89 85z" />
    <glyph glyph-name="slash" unicode="/" horiz-adv-x="456" 
d="M16 0l300 700h124l-300 -700h-124z" />
    <glyph glyph-name="underscore" unicode="_" horiz-adv-x="680" 
d="M580 -50v-114h-480v114h480z" />
    <glyph glyph-name="braceleft" unicode="{" horiz-adv-x="468" 
d="M173 292c71 -6 108 -71 80 -145l-19 -54c-18 -53 9 -91 63 -91h114v-116h-121c-137 0 -211 92 -172 219l17 53c15 49 -16 72 -78 80v147c64 6 94 30 78 78l-17 55c-40 127 35 219 172 219h121v-116h-114c-55 0 -81 -39 -63 -90l20 -58c25 -72 -10 -136 -81 -141v-40z" />
    <glyph glyph-name="braceright" unicode="}" horiz-adv-x="468" 
d="M295 292v40c-71 5 -106 69 -81 141l20 58c18 51 -8 90 -63 90h-114v116h121c137 0 212 -92 172 -219l-17 -55c-16 -48 14 -72 78 -78v-147c-62 -8 -93 -31 -78 -80l17 -53c39 -127 -35 -219 -172 -219h-121v116h114c54 0 81 38 63 91l-19 54c-28 74 9 139 80 145z" />
    <glyph glyph-name="bracketleft" unicode="[" horiz-adv-x="451" 
d="M394 623h-183v-623h183v-114h-299v851h299v-114z" />
    <glyph glyph-name="bracketright" unicode="]" horiz-adv-x="451" 
d="M356 737v-851h-299v114h183v623h-183v114h299z" />
    <glyph glyph-name="parenleft" unicode="(" horiz-adv-x="462" 
d="M415 -14l-33 -110c-203 72 -329 238 -329 435c0 198 126 363 329 436l33 -110c-149 -54 -241 -179 -241 -326s92 -271 241 -325z" />
    <glyph glyph-name="parenright" unicode=")" horiz-adv-x="462" 
d="M47 -14c149 54 241 178 241 325s-92 272 -241 326l33 110c203 -73 329 -238 329 -436c0 -197 -126 -363 -329 -435z" />
    <glyph glyph-name="emdash" unicode="&#x2014;" horiz-adv-x="667" 
d="M606 388v-115h-545v115h545z" />
    <glyph glyph-name="endash" unicode="&#x2013;" 
d="M508 388v-115h-447v115h447z" />
    <glyph glyph-name="hyphen" unicode="-" horiz-adv-x="465" 
d="M405 388v-115h-344v115h344z" />
    <glyph glyph-name="quotedblleft" unicode="&#x201c;" horiz-adv-x="535" 
d="M178 710l63 -51c-37 -38 -62 -72 -77 -103c37 5 77 -32 77 -80c0 -47 -38 -85 -89 -85c-47 0 -93 32 -93 106c0 62 30 123 119 213zM392 556c37 5 77 -32 77 -80c0 -47 -38 -85 -89 -85c-47 0 -93 32 -93 106c0 62 30 123 119 213l63 -51c-37 -38 -62 -72 -77 -103z" />
    <glyph glyph-name="quotedblright" unicode="&#x201d;" horiz-adv-x="535" 
d="M155 710c47 0 93 -32 93 -106c0 -62 -30 -123 -119 -213l-63 51c37 38 62 72 77 103c-37 -5 -77 32 -77 80c0 47 38 85 89 85zM383 710c47 0 93 -32 93 -106c0 -62 -30 -123 -119 -213l-63 51c37 38 62 72 77 103c-37 -5 -77 32 -77 80c0 47 38 85 89 85z" />
    <glyph glyph-name="quoteleft" unicode="&#x2018;" horiz-adv-x="307" 
d="M164 556c37 5 77 -32 77 -80c0 -47 -38 -85 -89 -85c-47 0 -93 32 -93 106c0 62 30 123 119 213l63 -51c-37 -38 -62 -72 -77 -103z" />
    <glyph glyph-name="quoteright" unicode="&#x2019;" horiz-adv-x="307" 
d="M155 710c47 0 93 -32 93 -106c0 -62 -30 -123 -119 -213l-63 51c37 38 62 72 77 103c-37 -5 -77 32 -77 80c0 47 38 85 89 85z" />
    <glyph glyph-name="space" unicode=" " horiz-adv-x="337" 
 />
    <glyph glyph-name="cent" unicode="&#xa2;" horiz-adv-x="585" 
d="M549 102c-42 -56 -108 -96 -181 -108l3 -124h-116l3 126c-122 26 -210 130 -210 259c0 130 90 234 210 261l-3 127h116l-3 -124c66 -11 125 -44 164 -92l-85 -85c-28 39 -72 62 -124 62c-87 0 -154 -63 -154 -148s66 -147 153 -147c58 0 107 27 136 72z" />
    <glyph glyph-name="dollar" unicode="$" horiz-adv-x="565" 
d="M520 197c0 -106 -74 -182 -178 -202l3 -125h-116l3 124c-70 12 -137 50 -196 117l86 82c53 -59 107 -88 162 -88c62 0 116 36 116 90c0 39 -27 65 -78 91l-121 62c-85 43 -126 99 -126 173c0 92 61 164 157 184l-3 125h116l-3 -125c61 -12 118 -42 162 -87l-75 -84
c-45 43 -97 63 -141 63c-52 0 -91 -29 -91 -73c0 -31 22 -53 75 -80l123 -63c86 -44 125 -105 125 -184z" />
    <glyph glyph-name="Euro" unicode="&#x20ac;" horiz-adv-x="818" 
d="M699 215l92 -81c-66 -86 -172 -144 -301 -144c-166 0 -302 101 -349 246h-90v85h74c-1 9 -1 19 -1 28c0 10 0 20 1 30h-74v85h91c47 146 184 246 350 246c114 0 213 -48 279 -124l-86 -87c-44 56 -111 91 -193 91c-97 0 -178 -50 -218 -126h273v-85h-299
c-1 -10 -2 -20 -2 -30s1 -19 2 -28h250v-85h-225c40 -76 120 -126 218 -126c91 0 165 44 208 105z" />
    <glyph glyph-name="sterling" unicode="&#xa3;" horiz-adv-x="668" 
d="M226 114h385v-114h-509l20 265h-73v99h81l9 117c10 136 96 229 232 229c134 0 228 -91 231 -224l-116 -7c-3 68 -51 115 -118 115c-66 0 -107 -47 -113 -113l-9 -117h218v-99h-226z" />
    <glyph glyph-name="yen" unicode="&#xa5;" horiz-adv-x="689" 
d="M656 700l-221 -329h132v-85h-162v-93h162v-85h-162v-108h-117v108h-176v85h176v93h-176v85h147l-222 329h143l166 -255l167 255h143z" />
    <glyph glyph-name="plus" unicode="+" 
d="M508 388v-115h-164v-164h-115v164h-168v115h168v168h115v-168h164z" />
    <glyph glyph-name="minus" unicode="&#x2212;" 
d="M508 388v-115h-447v115h447z" />
    <glyph glyph-name="multiply" unicode="&#xd7;" horiz-adv-x="500" 
d="M450 215l-82 -81l-115 116l-120 -120l-81 81l119 120l-119 119l81 81l119 -119l116 116l81 -82l-115 -115z" />
    <glyph glyph-name="divide" unicode="&#xf7;" 
d="M286 627c51 0 89 -37 89 -87s-38 -88 -89 -88s-89 38 -89 88s38 87 89 87zM508 388v-115h-447v115h447zM286 208c51 0 89 -37 89 -87s-38 -88 -89 -88s-89 38 -89 88s38 87 89 87z" />
    <glyph glyph-name="equal" unicode="=" 
d="M508 497v-115h-447v115h447zM508 279v-115h-447v115h447z" />
    <glyph glyph-name="greater" unicode="&#x3e;" horiz-adv-x="579" 
d="M83 580l448 -187v-124l-448 -187v140l298 109l-298 110v139z" />
    <glyph glyph-name="less" unicode="&#x3c;" horiz-adv-x="579" 
d="M496 580v-139l-298 -110l298 -109v-140l-448 187v124z" />
    <glyph glyph-name="percent" unicode="%" horiz-adv-x="907" 
d="M221 359c-102 0 -179 75 -179 175s77 176 179 176s179 -76 179 -176s-77 -175 -179 -175zM149 0l482 700h127l-483 -700h-126zM220 460c45 0 75 30 75 74c0 45 -30 75 -75 75c-43 0 -75 -30 -75 -75c0 -44 32 -74 75 -74zM686 -10c-102 0 -178 75 -178 175
s76 176 178 176c103 0 179 -76 179 -176s-76 -175 -179 -175zM686 91c45 0 75 30 75 74c0 45 -30 75 -75 75s-74 -30 -74 -75c0 -44 29 -74 74 -74z" />
    <glyph glyph-name="at" unicode="@" horiz-adv-x="882" 
d="M517 457h106v-183c0 -36 18 -58 46 -58c42 0 64 49 64 109c0 148 -122 258 -282 258c-172 0 -302 -128 -302 -297s121 -295 295 -295c77 0 161 23 240 75l44 -87c-81 -57 -181 -87 -280 -87c-237 0 -403 168 -403 394c0 225 173 394 406 394c218 0 385 -150 385 -351
c0 -127 -68 -210 -169 -210c-47 0 -84 18 -110 45c-27 -47 -78 -72 -136 -72c-104 0 -178 82 -178 186c0 107 77 186 174 186c42 0 75 -15 100 -40v33zM517 262v67c-17 22 -47 36 -78 36c-53 0 -91 -37 -91 -87s38 -87 88 -87c32 0 62 15 85 40c-3 10 -4 21 -4 31z" />
    <glyph glyph-name="ampersand" unicode="&#x26;" horiz-adv-x="717" 
d="M680 319l-158 -162l137 -157h-144l-69 79c-64 -63 -127 -89 -193 -89c-117 0 -203 81 -203 191c0 77 42 137 135 193l1 1l-2 2c-52 59 -74 111 -74 162c0 98 79 171 185 171c105 0 183 -72 183 -169c0 -67 -36 -124 -115 -172l-17 -10l105 -120l155 160zM271 445l10 -12
l23 14c43 27 64 55 64 91c0 42 -30 73 -73 73c-42 0 -72 -30 -72 -70c0 -27 12 -56 48 -96zM259 104c35 0 76 17 116 56l-124 140l-13 -8c-46 -27 -71 -61 -71 -102c0 -49 38 -86 92 -86z" />
    <glyph glyph-name="bar" unicode="|" horiz-adv-x="307" 
d="M211 700v-900h-116v900h116z" />
    <glyph glyph-name="uni2116" unicode="&#x2116;" horiz-adv-x="1234" 
d="M991 320c-112 0 -196 83 -196 195c0 111 84 195 196 195c113 0 198 -84 198 -195c0 -112 -85 -195 -198 -195zM708 0h-91l-404 490v-490h-118v700h93l403 -489l-1 489h118v-700zM992 434c47 0 81 35 81 81s-34 81 -81 81c-46 0 -81 -35 -81 -81s35 -81 81 -81zM992 236
c51 0 89 -37 89 -87s-38 -88 -89 -88s-89 38 -89 88s38 87 89 87z" />
    </font>
</defs>
</svg>
